# AST/ASF file generated using VICON BodyLanguage
# -----------------------------------------------
:version 1.10
:name VICON
:units
  mass 1.0
  length 0.45
  angle deg
:documentation
   .ast/.asf automatically generated from VICON data using
   VICON BodyBuilder and BodyLanguage model FoxedUp or BRILLIANT.MOD
:root
   order TX TY TZ RX RY RZ
   axis XYZ
   position 0 0 0  
   orientation 0 0 0 
:bonedata
  begin
     id 1 
     name lhipjoint
     direction 0.700308 -0.549349 0.455834 
     length 2.59063 
     axis 0 0 0  XYZ
  end
  begin
     id 2 
     name lfemur
     direction 0.34202 -0.939693 0  
     length 6.31066  
     axis 0 0 20  XYZ
    dof rx ry rz
    limits (-160.0 20.0)
           (-70.0 70.0)
           (-60.0 70.0)
  end
  begin
     id 3 
     name ltibia
     direction 0.34202 -0.939693 0   
     length 7.36093   
     axis 0 0 20   XYZ
    dof rx
    limits (-10.0 170.0)
  end
  begin
     id 4 
     name lfoot
     direction 0.0905332 -0.248738 0.96433   
     length 2.0233   
     axis -90 7.62852e-016 20   XYZ
    dof rx rz
    limits (-45.0 90.0)
           (-70.0 20.0)
  end
  begin
     id 5 
     name ltoes
     direction 1.53573e-011 -4.21855e-011 1   
     length 1.01524   
     axis -90 7.62852e-016 20   XYZ
    dof rx
    limits (-90.0 20.0)
  end
  begin
     id 6 
     name rhipjoint
     direction -0.61416 -0.607328 0.503944   
     length 2.34332  
     axis 0 0 0  XYZ 
  end
  begin
     id 7 
     name rfemur
     direction -0.34202 -0.939693 0   
     length 6.58548   
     axis 0 0 -20   XYZ
    dof rx ry rz
    limits (-160.0 20.0)
           (-70.0 70.0)
           (-70.0 60.0)
  end
  begin
     id 8 
     name rtibia
     direction -0.34202 -0.939693 0   
     length 7.20707   
     axis 0 0 -20   XYZ
    dof rx
    limits (-10.0 170.0)
 end
 begin
     id 9 
     name rfoot
     direction -0.136772 -0.375778 0.916561   
     length 1.92184  
     axis -90 -7.62852e-016 -20   XYZ
    dof rx rz
    limits (-45.0 90.0)
           (-20.0 70.0)
  end
  begin
     id 10 
     name rtoes
     direction -1.53535e-011 -4.21828e-011 1   
     length 0.951089   
     axis -90 -7.62852e-016 -20   XYZ
    dof rx
    limits (-90.0 20.0)
  end
  begin
     id 11 
     name lowerback
     direction -0.0444974 0.988086 -0.147332   
     length 1.9609   
     axis 0 0 0   XYZ
    dof rx ry rz
    limits (-20.0 45.0)
           (-30.0 30.0)
           (-30.0 30.0)
  end
  begin
     id 12 
     name upperback
     direction 0.00613146 0.999513 0.0306081   
     length 1.94944   
     axis 0 0 0   XYZ
    dof rx ry rz
    limits (-20.0 45.0)
           (-30.0 30.0)
           (-30.0 30.0)
  end
  begin
     id 13 
     name thorax
     direction 0.0254621 0.994518 0.101418   
     length 2.0119   
     axis 0 0 0   XYZ
    dof rx ry rz
    limits (-20.0 45.0)
           (-30.0 30.0)
           (-30.0 30.0)
  end
  begin
     id 14 
     name lowerneck
     direction 0.0168698 0.977854 0.208608   
     length 1.6375   
     axis 0 0 0   XYZ
    dof rx ry rz
    limits (-20.0 45.0)
           (-30.0 30.0)
           (-30.0 30.0)
  end
  begin
     id 15 
     name upperneck
     direction -0.0283988 0.989338 -0.142843   
     length 1.6851   
     axis 0 0 0   XYZ
    dof rx ry rz
    limits (-20.0 45.0)
           (-30.0 30.0)
           (-30.0 30.0)
  end
  begin
     id 16
     name head
     direction -0.0129422 0.99741 -0.0707489  
     length 1.69029  
     axis 0 0 0   XYZ
    dof rx ry rz
    limits (-20.0 45.0)
           (-30.0 30.0)
           (-30.0 30.0)
  end
  begin
     id 17 
     name lclavicle
     direction 0.820295 0.564628 -0.0911715  
     length 3.16484  
     axis 0 0 0   XYZ
    dof ry rz
    limits (-20.0 10.0)
           (0.0 20.0)
  end
  begin
     id 18 
     name lhumerus
     direction 1 -4.48969e-011 1.00186e-027   
     length 5.17853   
     axis 180 -30 -90   XYZ
    dof rx ry rz
    limits (-60.0 90.0)
           (-90.0 90.0)
           (-90.0 90.0)
  end
  begin
     id 19
     name lradius
     direction 1 -4.48966e-011 -1.52922e-027   
     length 3.40399   
     axis 180 -30 -90   XYZ
    dof rx
    limits (-10.0 170.0)
  end
  begin
     id 20
     name lwrist
     direction 1 -4.48981e-011 -3.80893e-027   
     length 1.70199   
     axis 1.1049e-015 90 90   XYZ
    dof ry
    limits (-180.0 0.0)
 end
  begin
     id 21 
     name lhand
     direction 1 -4.48957e-011 -7.61786e-027   
     length 0.708964   
     axis 4.86085e-015 90 90   XYZ
    dof rx rz
    limits (-90.0 90.0)
           (-45.0 45.0)
  end
  begin
     id 22 
     name lfingers
     direction 1 -4.48929e-011 -1.52357e-026   
     length 0.571585   
     axis 9.7217e-015 90 90   XYZ
    dof rx
    limits (0.0 90.0)
  end
  begin
     id 23
     name lthumb
     direction 0.707107 -6.34905e-011 0.707107   
     length 0.820685   
     axis -90 45 2.85299e-015   XYZ
    dof rx rz
    limits (-45.0 45.0)
           (-45.0 45.0)
  end
  begin
     id 24 
     name rclavicle
     direction -0.858602 0.463947 -0.218075   
     length 3.35137  
     axis 0 0 0   XYZ 
    dof ry rz
    limits (-10.0 20.0)
           (-20.0 0.0)
  end
  begin
     id 25 
     name rhumerus
     direction -1 -4.48969e-011 -1.98511e-027  
     length 5.42351   
     axis 180 30 90   XYZ
    dof rx ry rz
    limits (-90.0 60.0)
           (-90.0 90.0)
           (-90.0 90.0)
  end
  begin
     id 26 
     name rradius
     direction -1 -4.48961e-011 -2.82624e-027   
     length 3.42066   
     axis 180 30 90   XYZ
    dof rx
    limits (-10.0 170.0)
  end
  begin
     id 27 
     name rwrist
     direction -1 -4.48966e-011 -3.80893e-027   
     length 1.71033   
     axis 1.1049e-015 -90 -90   XYZ
    dof ry
    limits (-180.0 0.0)
  end
  begin
     id 28
     name rhand
     direction -1 -4.48964e-011 -7.61786e-027   
     length 0.743608   
     axis 4.86085e-015 -90 -90   XYZ
    dof rx rz
    limits (-90.0 90.0)
           (-45.0 45.0)
  end
  begin
     id 29
     name rfingers
     direction -1 -4.48961e-011 -1.52357e-026   
     length 0.599516   
     axis 9.7217e-015 -90 -90   XYZ
    dof rx
    limits (0.0 90.0)
  end
  begin
     id 30
     name rthumb
     direction -0.707107 -6.34913e-011 0.707107   
     length 0.860789   
     axis -90 -45 -2.85299e-015   XYZ
    dof rx rz
    limits (-45.0 45.0)
           (-45.0 45.0)
  end
:hierarchy
  begin
    root lhipjoint rhipjoint lowerback
    lhipjoint lfemur
    lfemur ltibia
    ltibia lfoot
    lfoot ltoes
    rhipjoint rfemur
    rfemur rtibia
    rtibia rfoot
    rfoot rtoes
    lowerback upperback
    upperback thorax
    thorax lowerneck lclavicle rclavicle
    lowerneck upperneck
    upperneck head
    lclavicle lhumerus
    lhumerus lradius
    lradius lwrist
    lwrist lhand lthumb
    lhand lfingers
    rclavicle rhumerus
    rhumerus rradius
    rradius rwrist
    rwrist rhand rthumb
    rhand rfingers
  end

#!OML:ASF E:\mmandel\Project 1\Capture day 1\Session 2\Subject.ASF
:FULLY-SPECIFIED
:DEGREES
130
root 22.4815 2.38815 -0.0327244 176.731 76.8899 88.2254
lowerback 5.70462 -0.00458617 -1.48462
upperback -1.94362 -0.122853 -0.0658927
thorax -5.21487 -0.0122965 0.777573
lowerneck -5.07059 14.4872 14.1461
upperneck 16.8764 20.0412 -11.7333
head 8.72945 9.42125 -3.94301
rclavicle -6.52014e-014 -8.10048e-014
rhumerus -0.375217 -40.8764 -2.05229
rradius 74.6798
rwrist -29.1516
rhand -22.4841 28.1206
rfingers 7.12502
rthumb 3.94128 -1.82268
lclavicle -6.52014e-014 -8.10048e-014
lhumerus 6.73483 28.3584 36.2676
lradius 87.3235
lwrist 34.0155
lhand -33.8402 -34.4541
lfingers 7.12502
lthumb -7.02532 -4.59065
rfemur 9.9811 -7.22026 18.6361
rtibia 0.864307
rfoot -33.9557 -42.9069
rtoes 39.8234
lfemur -60.1339 62.6589 -12.3158
ltibia 80.9171
lfoot 7.55232 13.0266
ltoes 26.0268
131
root 22.4835 2.39259 -0.0327837 177.12 76.8869 88.9181
lowerback 6.02315 -0.112421 -1.29377
upperback -1.88698 -0.25483 -0.0156586
thorax -5.33405 -0.0828019 0.737115
lowerneck -5.30584 14.4714 13.8331
upperneck 16.8854 20.0247 -11.6933
head 8.73293 9.38986 -3.87398
rclavicle -8.11041e-014 -5.41688e-014
rhumerus -1.09815 -40.3232 -2.35782
rradius 75.9374
rwrist -28.9653
rhand -22.7626 27.8741
rfingers 7.12502
rthumb 3.67237 -2.074
lclavicle -8.11041e-014 -5.41688e-014
lhumerus 5.59543 27.7603 35.0941
lradius 87.8557
lwrist 34.9501
lhand -33.6677 -34.5755
lfingers 7.12502
lthumb -6.8588 -4.70659
rfemur 10.8173 -7.19815 18.6449
rtibia -7.95139e-015
rfoot -33.2189 -43.2596
rtoes 38.7385
lfemur -59.405 62.628 -11.472
ltibia 81.0929
lfoot 7.77402 12.8311
ltoes 25.0561
132
root 22.4907 2.39275 -0.031098 177.157 76.9861 89.1067
lowerback 6.13159 -0.198444 -1.22334
upperback -1.85367 -0.364976 -0.00235538
thorax -5.35871 -0.139489 0.723494
lowerneck -5.44011 14.5106 13.5388
upperneck 16.7527 20.0826 -11.6949
head 8.68759 9.39867 -3.81772
rclavicle 3.18055e-014 5.56597e-015
rhumerus -1.75214 -39.8155 -2.79099
rradius 77.193
rwrist -28.6862
rhand -22.8179 27.7535
rfingers 7.12502
rthumb 3.619 -2.19555
lclavicle 3.18055e-014 5.56597e-015
lhumerus 4.391 27.1841 33.8818
lradius 88.4524
lwrist 35.8212
lhand -33.2395 -34.5221
lfingers 7.12502
lthumb -6.44545 -4.64016
rfemur 11.0382 -7.08089 18.6077
rtibia 0
rfoot -32.9025 -43.3338
rtoes 36.8454
lfemur -58.8747 62.7643 -10.9151
ltibia 81.2937
lfoot 7.93129 12.5529
ltoes 23.7121
133
root 22.4958 2.39326 -0.0279967 177.206 77.1138 89.1365
lowerback 6.09805 -0.258753 -1.25836
upperback -1.90295 -0.447818 0.00638934
thorax -5.38916 -0.178673 0.761015
lowerneck -5.11542 14.4833 13.578
upperneck 16.0628 20.1016 -12.2756
head 8.47073 9.40431 -4.03814
rclavicle 0 2.87244e-014
rhumerus -2.5 -39.2289 -3.10046
rradius 78.391
rwrist -28.4745
rhand -22.9657 27.8514
rfingers 7.12502
rthumb 3.47622 -2.09999
lclavicle 0 2.87244e-014
lhumerus 3.09571 26.3692 32.6318
lradius 89.0556
lwrist 36.2366
lhand -33.0329 -34.3351
lfingers 7.12502
lthumb -6.24595 -4.44717
rfemur 11.0697 -6.93848 18.5645
rtibia 3.02153e-014
rfoot -31.9355 -43.3057
rtoes 37.0388
lfemur -58.6974 62.9585 -10.7028
ltibia 81.4647
lfoot 8.1036 12.3645
ltoes 22.9682
134
root 22.4979 2.39557 -0.027175 177.491 77.1849 89.4793
lowerback 6.17301 -0.319905 -1.2227
upperback -1.95066 -0.526698 0.0341714
thorax -5.48014 -0.21755 0.779089
lowerneck -4.86334 14.428 13.686
upperneck 15.5003 20.082 -12.8639
head 8.31417 9.39102 -4.26868
rclavicle 4.77083e-015 4.48259e-014
rhumerus -3.40811 -38.613 -3.26133
rradius 79.6457
rwrist -28.4534
rhand -22.8816 28.0694
rfingers 7.12502
rthumb 3.55747 -1.88068
lclavicle 4.77083e-015 4.48259e-014
lhumerus 1.79717 25.3151 31.4501
lradius 89.5549
lwrist 36.205
lhand -33.3997 -34.4464
lfingers 7.12502
lthumb -6.60013 -4.56923
rfemur 11.1943 -6.8523 18.5685
rtibia 1.27222e-014
rfoot -31.281 -43.2501
rtoes 36.6152
lfemur -58.3416 63.0156 -10.2904
ltibia 81.604
lfoot 8.22476 12.3829
ltoes 24.0908
135
root 22.4995 2.39697 -0.0254786 178.428 77.3709 90.4726
lowerback 6.22532 -0.311892 -1.07282
upperback -1.99833 -0.500741 0.107389
thorax -5.56099 -0.207852 0.768871
lowerneck -4.86074 14.4255 13.5218
upperneck 15.253 20.0804 -12.9422
head 8.22224 9.38568 -4.2747
rclavicle 4.6118e-014 6.20208e-014
rhumerus -4.52439 -38.013 -3.30916
rradius 80.993
rwrist -28.3442
rhand -22.8156 28.3576
rfingers 7.12502
rthumb 3.62119 -1.59143
lclavicle 4.6118e-014 6.20208e-014
lhumerus 0.677421 24.3745 30.5228
lradius 90.1803
lwrist 36.4737
lhand -33.5256 -34.6432
lfingers 7.12502
lthumb -6.72157 -4.76989
rfemur 11.2855 -6.66079 18.7553
rtibia -4.77083e-015
rfoot -29.8221 -43.2797
rtoes 39.9652
lfemur -57.9845 63.2175 -9.66885
ltibia 81.786
lfoot 8.16432 12.6064
ltoes 25.6653
136
root 22.4961 2.39623 -0.0245635 179.573 77.5921 91.6845
lowerback 6.26352 -0.264466 -0.942503
upperback -2.04988 -0.421364 0.21265
thorax -5.63857 -0.170527 0.796959
lowerneck -4.91501 14.4279 13.1578
upperneck 15.0652 20.0581 -12.7482
head 8.10491 9.3743 -4.166
rclavicle -4.45278e-014 -3.16068e-014
rhumerus -5.66484 -37.3747 -3.37653
rradius 82.2909
rwrist -27.9979
rhand -23.2814 28.6993
rfingers 7.12502
rthumb 3.17133 -1.25691
lclavicle -4.45278e-014 -3.16068e-014
lhumerus -0.372114 23.529 29.7817
lradius 90.9403
lwrist 36.6879
lhand -33.3589 -34.6325
lfingers 7.12502
lthumb -6.56068 -4.75411
rfemur 11.3734 -6.43437 19.0094
rtibia -1.74931e-014
rfoot -30.3241 -43.2572
rtoes 36.3547
lfemur -57.6521 63.5817 -8.99072
ltibia 82.0338
lfoot 8.04508 12.6471
ltoes 25.1534
137
root 22.4978 2.39657 -0.023736 180.016 77.7503 92.1505
lowerback 6.25821 -0.243979 -0.985025
upperback -2.09864 -0.393139 0.295038
thorax -5.68655 -0.152945 0.903619
lowerneck -4.98721 14.3813 12.9385
upperneck 14.9871 19.9921 -12.6897
head 8.05237 9.33697 -4.12433
rclavicle -1.59028e-015 6.06293e-015
rhumerus -6.72291 -36.8076 -3.6031
rradius 83.6633
rwrist -27.6155
rhand -23.6075 28.8843
rfingers 7.12502
rthumb 2.85642 -1.07635
lclavicle -1.59028e-015 6.06293e-015
lhumerus -1.45117 22.712 29.1448
lradius 91.677
lwrist 36.4697
lhand -33.3352 -34.5131
lfingers 7.12502
lthumb -6.53777 -4.63402
rfemur 11.4397 -6.26279 19.0674
rtibia -3.18055e-015
rfoot -28.8768 -43.4251
rtoes 38.8667
lfemur -57.3778 63.8338 -8.61259
ltibia 82.2719
lfoot 8.23902 12.3963
ltoes 24.0167
138
root 22.5039 2.40147 -0.0224937 179.963 77.74 92.1364
lowerback 6.3253 -0.310545 -1.04123
upperback -2.13339 -0.486279 0.325181
thorax -5.75861 -0.195767 0.977646
lowerneck -4.81359 14.1869 13.3196
upperneck 14.5328 19.8295 -13.6751
head 8.00096 9.2426 -4.53208
rclavicle 7.95139e-015 6.36111e-015
rhumerus -7.77602 -36.3604 -3.95316
rradius 85.1611
rwrist -27.286
rhand -23.6066 29.0797
rfingers 7.12502
rthumb 2.85733 -0.880893
lclavicle 7.95139e-015 6.36111e-015
lhumerus -2.57029 22.0249 28.539
lradius 92.449
lwrist 36.2011
lhand -33.3004 -34.5067
lfingers 7.12502
lthumb -6.50421 -4.62661
rfemur 11.555 -6.25211 18.9736
rtibia -2.06736e-014
rfoot -30.3609 -43.0101
rtoes 33.8606
lfemur -57.1977 63.8406 -8.44684
ltibia 82.5176
lfoot 8.51987 12.3168
ltoes 24.8386
139
root 22.5099 2.41564 -0.0401546 179.688 77.2043 92.4992
lowerback 7.09076 -0.520468 -0.701594
upperback -2.02049 -0.744346 0.307655
thorax -6.07512 -0.334622 0.806077
lowerneck -5.02358 14.0598 13.0507
upperneck 14.5379 19.6545 -13.597
head 7.97705 9.14501 -4.48324
rclavicle -3.65764e-014 -1.04362e-014
rhumerus -8.93382 -35.8814 -4.16189
rradius 86.5427
rwrist -26.9487
rhand -23.873 29.5152
rfingers 7.12502
rthumb 2.6 -0.448698
lclavicle -3.65764e-014 -1.04362e-014
lhumerus -3.5534 21.2911 28.0138
lradius 93.181
lwrist 36.1562
lhand -33.2406 -34.6422
lfingers 7.12502
lthumb -6.44653 -4.76035
rfemur 12.3164 -6.73621 18.769
rtibia -4.77083e-015
rfoot -29.4862 -42.7047
rtoes 37.582
lfemur -56.1344 63.0492 -7.54737
ltibia 82.7859
lfoot 8.31936 12.6258
ltoes 26.5085
140
root 22.507 2.41381 -0.0352981 180.866 77.5408 93.5363
lowerback 6.84664 -0.438628 -0.661048
upperback -2.06554 -0.622867 0.4235
thorax -5.98441 -0.274275 0.886908
lowerneck -5.02499 13.927 13.0301
upperneck 14.1006 19.5128 -14.1048
head 7.86779 9.064 -4.66842
rclavicle -8.90555e-014 -4.68138e-014
rhumerus -10.044 -35.3373 -4.48904
rradius 87.8972
rwrist -26.7327
rhand -24.4524 29.9563
rfingers 7.12502
rthumb 2.04045 -0.0136998
lclavicle -8.90555e-014 -4.68138e-014
lhumerus -4.55095 20.5175 27.4556
lradius 93.9197
lwrist 36.2627
lhand -33.4194 -35.0178
lfingers 7.12502
lthumb -6.61909 -5.14125
rfemur 12.1754 -6.39481 19.0183
rtibia 1.59028e-015
rfoot -29.4006 -42.5842
rtoes 37.2891
lfemur -56.1966 63.6011 -7.23703
ltibia 83.0546
lfoot 8.43432 12.5529
ltoes 26.3182
141
root 22.5101 2.42047 -0.0426205 180.751 77.3753 93.5543
lowerback 7.05681 -0.433425 -0.698587
upperback -2.08502 -0.617463 0.47732
thorax -6.12432 -0.268182 0.966004
lowerneck -5.14551 13.94 12.3038
upperneck 13.9513 19.429 -13.2823
head 7.66203 9.04158 -4.31345
rclavicle 1.20861e-013 1.46206e-013
rhumerus -11.483 -34.8158 -4.48344
rradius 89.3459
rwrist -26.7572
rhand -24.8017 30.4271
rfingers 7.12502
rthumb 1.70305 0.454121
lclavicle 1.20861e-013 1.46206e-013
lhumerus -5.46617 19.632 27.3259
lradius 94.8783
lwrist 36.1085
lhand -33.9557 -35.6406
lfingers 7.12502
lthumb -7.13677 -5.7809
rfemur 12.3833 -6.53484 18.9126
rtibia -1.59028e-015
rfoot -29.1628 -42.4949
rtoes 37.3232
lfemur -55.9379 63.3655 -7.10676
ltibia 83.2726
lfoot 8.03439 12.7132
ltoes 25.7612
